<svg width="79" height="79" viewBox="0 0 79 79" fill="none" xmlns="http://www.w3.org/2000/svg">
<g clip-path="url(#clip0_254_164)">
<path fill-rule="evenodd" clip-rule="evenodd" d="M32.3607 55.1779C25.4446 49.8721 16 41.1074 16 32.8204C16 18.9758 28.925 13.8064 39.5 24.4981C50.075 13.8064 63 18.9758 63 32.8204C63 41.1074 53.553 49.8721 46.6393 55.1779C43.5091 57.5779 41.944 58.7803 39.5 58.7803C37.056 58.7803 35.4909 57.5803 32.3607 55.1779ZM50.075 26.4275C50.5424 26.4275 50.9907 26.6134 51.3213 26.9444C51.6518 27.2753 51.8375 27.7242 51.8375 28.1922V31.1334H54.775C55.2424 31.1334 55.6907 31.3193 56.0213 31.6502C56.3518 31.9812 56.5375 32.43 56.5375 32.8981C56.5375 33.3661 56.3518 33.815 56.0213 34.1459C55.6907 34.4768 55.2424 34.6628 54.775 34.6628H51.8375V37.6039C51.8375 38.072 51.6518 38.5208 51.3213 38.8518C50.9907 39.1827 50.5424 39.3686 50.075 39.3686C49.6076 39.3686 49.1593 39.1827 48.8287 38.8518C48.4982 38.5208 48.3125 38.072 48.3125 37.6039V34.6628H45.375C44.9076 34.6628 44.4593 34.4768 44.1287 34.1459C43.7982 33.815 43.6125 33.3661 43.6125 32.8981C43.6125 32.43 43.7982 31.9812 44.1287 31.6502C44.4593 31.3193 44.9076 31.1334 45.375 31.1334H48.3125V28.1922C48.3125 27.7242 48.4982 27.2753 48.8287 26.9444C49.1593 26.6134 49.6076 26.4275 50.075 26.4275Z" fill="#F38B21"/>
</g>
<defs>
<clipPath id="clip0_254_164">
<rect width="78.2475" height="78.2475" rx="16" fill="white"/>
</clipPath>
</defs>
</svg>
