<svg width="79" height="79" viewBox="0 0 79 79" fill="none" xmlns="http://www.w3.org/2000/svg">
<g clip-path="url(#clip0_254_174)">
<path d="M38.6666 18.7803C35.7492 18.7803 32.9514 19.9392 30.8885 22.0021C28.8256 24.065 27.6666 26.8629 27.6666 29.7803C27.6666 32.6977 28.8256 35.4955 30.8885 37.5584C32.9514 39.6213 35.7492 40.7803 38.6666 40.7803C41.584 40.7803 44.3819 39.6213 46.4448 37.5584C48.5077 35.4955 49.6666 32.6977 49.6666 29.7803C49.6666 26.8629 48.5077 24.065 46.4448 22.0021C44.3819 19.9392 41.584 18.7803 38.6666 18.7803ZM30.6666 42.7803C28.0145 42.7803 25.4709 43.8338 23.5956 45.7092C21.7202 47.5846 20.6666 50.1281 20.6666 52.7803V58.7803H56.6666V52.7803C56.6666 50.1281 55.6131 47.5846 53.7377 45.7092C51.8623 43.8338 49.3188 42.7803 46.6666 42.7803H43.9026L38.6666 53.2523L33.4306 42.7803H30.6666Z" fill="#F38B21"/>
</g>
<defs>
<clipPath id="clip0_254_174">
<rect width="78.2475" height="78.2475" rx="16" fill="white"/>
</clipPath>
</defs>
</svg>
