<svg width="79" height="79" viewBox="0 0 79 79" fill="none" xmlns="http://www.w3.org/2000/svg">
<g clip-path="url(#clip0_254_169)">
<path d="M40.7469 19.3659L58.7436 37.366C60.0033 38.6261 59.1115 40.7801 57.3298 40.7801H55.3302V52.7802C55.3302 54.3715 54.6982 55.8977 53.5732 57.0229C52.4482 58.1481 50.9223 58.7803 49.3313 58.7803H47.3317V44.7801C47.3318 43.2497 46.7471 41.7771 45.6974 40.6636C44.6477 39.5501 43.2122 38.8798 41.6847 38.7901L41.3328 38.7801H37.3335C35.7425 38.7801 34.2167 39.4122 33.0917 40.5374C31.9667 41.6627 31.3346 43.1888 31.3346 44.7801V58.7803H29.335C27.744 58.7803 26.2182 58.1481 25.0932 57.0229C23.9682 55.8977 23.3361 54.3715 23.3361 52.7802V40.7801H21.3365C19.5568 40.7801 18.663 38.6261 19.9228 37.366L37.9194 19.3659C38.2944 18.9909 38.8029 18.7803 39.3332 18.7803C39.8634 18.7803 40.3719 18.9909 40.7469 19.3659ZM41.3328 42.7801C41.8631 42.7801 42.3717 42.9908 42.7467 43.3659C43.1217 43.741 43.3324 44.2497 43.3324 44.7801V58.7803H35.3339V44.7801C35.334 44.2903 35.5138 43.8174 35.8392 43.4514C36.1647 43.0853 36.6132 42.8514 37.0996 42.7941L37.3335 42.7801H41.3328Z" fill="#F38B21"/>
</g>
<defs>
<clipPath id="clip0_254_169">
<rect width="78.2475" height="78.2475" rx="16" fill="white"/>
</clipPath>
</defs>
</svg>
