<svg width="79" height="79" viewBox="0 0 79 79" fill="none" xmlns="http://www.w3.org/2000/svg">
<g clip-path="url(#clip0_254_140)">
<path fill-rule="evenodd" clip-rule="evenodd" d="M24.359 22.9012C24.9453 21.7289 25.8465 20.7431 26.9615 20.054C28.0765 19.365 29.3613 19 30.672 19H48.3849C49.6956 19 50.9804 19.365 52.0954 20.054C53.2104 20.7431 54.1115 21.7289 54.6978 22.9012L57.959 29.4212C58.5331 29.1859 59.0978 28.9318 59.6531 28.6588C60.2117 28.3799 60.8581 28.3342 61.4503 28.5319C62.0425 28.7296 62.5318 29.1544 62.8108 29.7129C63.0897 30.2715 63.1354 30.9179 62.9377 31.5101C62.74 32.1023 62.3152 32.5916 61.7567 32.8706C61.192 33.1216 60.6233 33.3663 60.0508 33.6047L62.312 38.1294C62.8037 39.1106 63.0578 40.1929 63.0578 41.2894V47.2353C63.0578 48.2284 62.8482 49.2104 62.4428 50.117C62.0373 51.0236 61.4451 51.8344 60.7049 52.4965V55.4706C60.7049 56.4066 60.3331 57.3044 59.6712 57.9663C59.0093 58.6282 58.1116 59 57.1755 59C56.2394 59 55.3417 58.6282 54.6798 57.9663C54.0179 57.3044 53.6461 56.4066 53.6461 55.4706V54.2941H25.4108V55.4706C25.4108 56.4066 25.0389 57.3044 24.377 57.9663C23.7152 58.6282 22.8174 59 21.8814 59C20.9453 59 20.0476 58.6282 19.3857 57.9663C18.7238 57.3044 18.352 56.4066 18.352 55.4706V52.4965C16.9073 51.2024 15.999 49.3247 15.999 47.2353V41.2871C15.999 40.1906 16.2555 39.1106 16.7449 38.1318L18.9873 33.6424C18.4194 33.4039 17.8586 33.1475 17.3049 32.8729C16.7492 32.5904 16.3268 32.1008 16.1287 31.5096C15.9307 30.9185 15.9728 30.2733 16.2461 29.7129C16.3841 29.4363 16.5753 29.1896 16.8087 28.9869C17.0421 28.7841 17.3132 28.6294 17.6065 28.5315C17.8997 28.4336 18.2094 28.3945 18.5178 28.4163C18.8261 28.4382 19.1272 28.5206 19.4037 28.6588C19.9606 28.9333 20.5253 29.1875 21.0978 29.4212L24.359 22.9012Z" fill="#F38B21"/>
<path fill-rule="evenodd" clip-rule="evenodd" d="M28.5683 25.0072C28.7636 24.6165 29.0638 24.2878 29.4353 24.0579C29.8068 23.8281 30.235 23.7063 30.6718 23.7061H48.3848C49.2765 23.7061 50.0907 24.2096 50.4883 25.0072L53.4765 30.979C49.8342 32.0708 44.9259 33.1178 39.5283 33.1178C34.1306 33.1178 29.2224 32.0708 25.5824 30.9766L28.5683 25.0072ZM50.1165 47.2355C51.0526 47.2355 51.9503 46.8636 52.6122 46.2017C53.2741 45.5398 53.6459 44.6421 53.6459 43.7061C53.6459 42.77 53.2741 41.8723 52.6122 41.2104C51.9503 40.5485 51.0526 40.1766 50.1165 40.1766C49.1805 40.1766 48.2828 40.5485 47.6209 41.2104C46.959 41.8723 46.5871 42.77 46.5871 43.7061C46.5871 44.6421 46.959 45.5398 47.6209 46.2017C48.2828 46.8636 49.1805 47.2355 50.1165 47.2355ZM32.4695 43.7061C32.4695 44.6421 32.0976 45.5398 31.4357 46.2017C30.7738 46.8636 29.8761 47.2355 28.9401 47.2355C28.004 47.2355 27.1063 46.8636 26.4444 46.2017C25.7825 45.5398 25.4106 44.6421 25.4106 43.7061C25.4106 42.77 25.7825 41.8723 26.4444 41.2104C27.1063 40.5485 28.004 40.1766 28.9401 40.1766C29.8761 40.1766 30.7738 40.5485 31.4357 41.2104C32.0976 41.8723 32.4695 42.77 32.4695 43.7061Z" fill="#1A0827"/>
</g>
<defs>
<clipPath id="clip0_254_140">
<rect width="78.2475" height="78.2475" rx="16" fill="white"/>
</clipPath>
</defs>
</svg>
