<svg width="79" height="79" viewBox="0 0 79 79" fill="none" xmlns="http://www.w3.org/2000/svg">
<g clip-path="url(#clip0_254_147)">
<path d="M23.6001 29.9049L31.3744 32.1493L39.9194 25.9434L27.6563 26.2949C27.536 26.3002 27.4193 26.3375 27.3183 26.4031L23.4379 28.6339C23.3172 28.7008 23.2193 28.8024 23.157 28.9255C23.0946 29.0486 23.0706 29.1875 23.0881 29.3244C23.1055 29.4613 23.1637 29.5898 23.255 29.6933C23.3463 29.7968 23.4665 29.8705 23.6001 29.9049Z" fill="#F38B21"/>
<path d="M61.8231 22.9551L53.3052 21.1163C52.5888 20.9608 51.8474 20.9612 51.1312 21.1175C50.415 21.2738 49.7408 21.5824 49.1544 22.0222L23.4249 40.7211L17.246 40.4507C16.8921 40.4386 16.5433 40.5381 16.249 40.7349C15.9546 40.9318 15.7296 41.2162 15.6056 41.5479C15.4815 41.8796 15.4649 42.2419 15.5578 42.5836C15.6508 42.9253 15.8488 43.2291 16.1238 43.4522L22.1404 48.2249C22.2395 48.3049 22.3574 48.358 22.4829 48.3793C22.6083 48.4006 22.7372 48.3894 22.857 48.3466C24.5741 47.6841 30.9693 44.2905 38.5273 40.1397L40.0416 55.7018C40.0544 55.8366 40.1038 55.9653 40.1845 56.074C40.2651 56.1828 40.3739 56.2675 40.4991 56.319C40.6243 56.3705 40.7612 56.3868 40.8951 56.3662C41.0289 56.3456 41.1545 56.2888 41.2584 56.202L44.6386 53.3898C44.8236 53.2346 44.9481 53.0192 44.9901 52.7814L48.1945 34.8126C53.6027 31.8111 58.7675 28.9041 62.4045 26.849C62.782 26.6437 63.0871 26.3272 63.2787 25.9426C63.4703 25.558 63.539 25.1238 63.4756 24.6988C63.4121 24.2738 63.2195 23.8786 62.924 23.5667C62.6284 23.2548 62.2441 23.0413 61.8231 22.9551Z" fill="#F38B21"/>
</g>
<defs>
<clipPath id="clip0_254_147">
<rect width="78.2475" height="78.2475" rx="16" fill="white"/>
</clipPath>
</defs>
</svg>
